<?xml version="1.0" encoding="UTF-8" standalone="no"?>
<!DOCTYPE svg PUBLIC "-//W3C//DTD SVG 1.1//EN"
 "http://www.w3.org/Graphics/SVG/1.1/DTD/svg11.dtd">
<!-- Generated by graphviz version 2.42.3 (20191010.1750)
 -->
<!-- Title: snakemake_dag Pages: 1 -->
<svg width="158pt" height="188pt"
 viewBox="0.00 0.00 158.00 188.00" xmlns="http://www.w3.org/2000/svg" xmlns:xlink="http://www.w3.org/1999/xlink">
<g id="graph0" class="graph" transform="scale(1 1) rotate(0) translate(4 184)">
<title>snakemake_dag</title>
<polygon fill="white" stroke="transparent" points="-4,4 -4,-184 154,-184 154,4 -4,4"/>
<!-- 0 -->
<g id="node1" class="node">
<title>0</title>
<path fill="none" stroke="#56d8d8" stroke-width="2" d="M90,-36C90,-36 60,-36 60,-36 54,-36 48,-30 48,-24 48,-24 48,-12 48,-12 48,-6 54,0 60,0 60,0 90,0 90,0 96,0 102,-6 102,-12 102,-12 102,-24 102,-24 102,-30 96,-36 90,-36"/>
<text text-anchor="middle" x="75" y="-15.5" font-family="sans" font-size="10.00">all</text>
</g>
<!-- 1 -->
<g id="node2" class="node">
<title>1</title>
<path fill="none" stroke="#59d856" stroke-width="2" d="M54,-108C54,-108 12,-108 12,-108 6,-108 0,-102 0,-96 0,-96 0,-84 0,-84 0,-78 6,-72 12,-72 12,-72 54,-72 54,-72 60,-72 66,-78 66,-84 66,-84 66,-96 66,-96 66,-102 60,-108 54,-108"/>
<text text-anchor="middle" x="33" y="-87.5" font-family="sans" font-size="10.00">aggregate</text>
</g>
<!-- 1&#45;&gt;0 -->
<g id="edge1" class="edge">
<title>1&#45;&gt;0</title>
<path fill="none" stroke="grey" stroke-width="2" d="M43.38,-71.7C48.26,-63.56 54.19,-53.69 59.58,-44.7"/>
<polygon fill="grey" stroke="grey" stroke-width="2" points="62.59,-46.48 64.74,-36.1 56.59,-42.88 62.59,-46.48"/>
</g>
<!-- 2 -->
<g id="node3" class="node">
<title>2</title>
<path fill="none" stroke="#59d856" stroke-width="2" d="M138,-108C138,-108 96,-108 96,-108 90,-108 84,-102 84,-96 84,-96 84,-84 84,-84 84,-78 90,-72 96,-72 96,-72 138,-72 138,-72 144,-72 150,-78 150,-84 150,-84 150,-96 150,-96 150,-102 144,-108 138,-108"/>
<text text-anchor="middle" x="117" y="-87.5" font-family="sans" font-size="10.00">aggregate</text>
</g>
<!-- 2&#45;&gt;0 -->
<g id="edge2" class="edge">
<title>2&#45;&gt;0</title>
<path fill="none" stroke="grey" stroke-width="2" d="M106.62,-71.7C101.74,-63.56 95.81,-53.69 90.42,-44.7"/>
<polygon fill="grey" stroke="grey" stroke-width="2" points="93.41,-42.88 85.26,-36.1 87.41,-46.48 93.41,-42.88"/>
</g>
<!-- 3 -->
<g id="node4" class="node">
<title>3</title>
<path fill="none" stroke="#d6d856" stroke-width="2" d="M53.5,-180C53.5,-180 12.5,-180 12.5,-180 6.5,-180 0.5,-174 0.5,-168 0.5,-168 0.5,-156 0.5,-156 0.5,-150 6.5,-144 12.5,-144 12.5,-144 53.5,-144 53.5,-144 59.5,-144 65.5,-150 65.5,-156 65.5,-156 65.5,-168 65.5,-168 65.5,-174 59.5,-180 53.5,-180"/>
<text text-anchor="middle" x="33" y="-165" font-family="sans" font-size="10.00">clustering</text>
<text text-anchor="middle" x="33" y="-154" font-family="sans" font-size="10.00">sample: a</text>
</g>
<!-- 3&#45;&gt;1 -->
<g id="edge3" class="edge">
<title>3&#45;&gt;1</title>
<path fill="none" stroke="grey" stroke-width="2" d="M33,-143.7C33,-135.98 33,-126.71 33,-118.11"/>
<polygon fill="grey" stroke="grey" stroke-width="2" points="36.5,-118.1 33,-108.1 29.5,-118.1 36.5,-118.1"/>
</g>
<!-- 4 -->
<g id="node5" class="node">
<title>4</title>
<path fill="none" stroke="#d6d856" stroke-width="2" d="M137.5,-180C137.5,-180 96.5,-180 96.5,-180 90.5,-180 84.5,-174 84.5,-168 84.5,-168 84.5,-156 84.5,-156 84.5,-150 90.5,-144 96.5,-144 96.5,-144 137.5,-144 137.5,-144 143.5,-144 149.5,-150 149.5,-156 149.5,-156 149.5,-168 149.5,-168 149.5,-174 143.5,-180 137.5,-180"/>
<text text-anchor="middle" x="117" y="-165" font-family="sans" font-size="10.00">clustering</text>
<text text-anchor="middle" x="117" y="-154" font-family="sans" font-size="10.00">sample: b</text>
</g>
<!-- 4&#45;&gt;2 -->
<g id="edge4" class="edge">
<title>4&#45;&gt;2</title>
<path fill="none" stroke="grey" stroke-width="2" d="M117,-143.7C117,-135.98 117,-126.71 117,-118.11"/>
<polygon fill="grey" stroke="grey" stroke-width="2" points="120.5,-118.1 117,-108.1 113.5,-118.1 120.5,-118.1"/>
</g>
</g>
</svg>
