<?xml version="1.0" encoding="UTF-8" standalone="no"?>
<!DOCTYPE svg PUBLIC "-//W3C//DTD SVG 1.1//EN"
 "http://www.w3.org/Graphics/SVG/1.1/DTD/svg11.dtd">
<!-- Generated by graphviz version 2.42.3 (20191010.1750)
 -->
<!-- Title: snakemake_dag Pages: 1 -->
<svg width="480pt" height="193pt"
 viewBox="0.00 0.00 480.00 193.00" xmlns="http://www.w3.org/2000/svg" xmlns:xlink="http://www.w3.org/1999/xlink">
<g id="graph0" class="graph" transform="scale(1 1) rotate(0) translate(4 189)">
<title>snakemake_dag</title>
<polygon fill="white" stroke="transparent" points="-4,4 -4,-189 476,-189 476,4 -4,4"/>
<!-- 0 -->
<g id="node1" class="node">
<title>0</title>
<path fill="none" stroke="#56d8d8" stroke-width="2" stroke-dasharray="5,2" d="M300,-36C300,-36 270,-36 270,-36 264,-36 258,-30 258,-24 258,-24 258,-12 258,-12 258,-6 264,0 270,0 270,0 300,0 300,0 306,0 312,-6 312,-12 312,-12 312,-24 312,-24 312,-30 306,-36 300,-36"/>
<text text-anchor="middle" x="285" y="-15.5" font-family="sans" font-size="10.00">all</text>
</g>
<!-- 1 -->
<g id="node2" class="node">
<title>1</title>
<path fill="none" stroke="#59d856" stroke-width="2" stroke-dasharray="5,2" d="M208,-108C208,-108 166,-108 166,-108 160,-108 154,-102 154,-96 154,-96 154,-84 154,-84 154,-78 160,-72 166,-72 166,-72 208,-72 208,-72 214,-72 220,-78 220,-84 220,-84 220,-96 220,-96 220,-102 214,-108 208,-108"/>
<text text-anchor="middle" x="187" y="-87.5" font-family="sans" font-size="10.00">aggregate</text>
</g>
<!-- 1&#45;&gt;0 -->
<g id="edge1" class="edge">
<title>1&#45;&gt;0</title>
<path fill="none" stroke="grey" stroke-width="2" d="M210.97,-71.88C223.55,-62.89 239.13,-51.76 252.75,-42.03"/>
<polygon fill="grey" stroke="grey" stroke-width="2" points="254.83,-44.85 260.93,-36.19 250.76,-39.15 254.83,-44.85"/>
</g>
<!-- 2 -->
<g id="node3" class="node">
<title>2</title>
<path fill="none" stroke="#59d856" stroke-width="2" stroke-dasharray="5,2" d="M355,-108C355,-108 313,-108 313,-108 307,-108 301,-102 301,-96 301,-96 301,-84 301,-84 301,-78 307,-72 313,-72 313,-72 355,-72 355,-72 361,-72 367,-78 367,-84 367,-84 367,-96 367,-96 367,-102 361,-108 355,-108"/>
<text text-anchor="middle" x="334" y="-87.5" font-family="sans" font-size="10.00">aggregate</text>
</g>
<!-- 2&#45;&gt;0 -->
<g id="edge2" class="edge">
<title>2&#45;&gt;0</title>
<path fill="none" stroke="grey" stroke-width="2" d="M321.89,-71.7C316.13,-63.47 309.14,-53.48 302.79,-44.42"/>
<polygon fill="grey" stroke="grey" stroke-width="2" points="305.58,-42.29 296.97,-36.1 299.84,-46.3 305.58,-42.29"/>
</g>
<!-- 3 -->
<g id="node4" class="node">
<title>3</title>
<path fill="none" stroke="#d85656" stroke-width="2" stroke-dasharray="5,2" d="M68,-185C68,-185 12,-185 12,-185 6,-185 0,-179 0,-173 0,-173 0,-156 0,-156 0,-150 6,-144 12,-144 12,-144 68,-144 68,-144 74,-144 80,-150 80,-156 80,-156 80,-173 80,-173 80,-179 74,-185 68,-185"/>
<text text-anchor="middle" x="40" y="-173" font-family="sans" font-size="10.00">intermediate</text>
<text text-anchor="middle" x="40" y="-162" font-family="sans" font-size="10.00">i: 1</text>
<text text-anchor="middle" x="40" y="-151" font-family="sans" font-size="10.00">sample: a</text>
</g>
<!-- 3&#45;&gt;1 -->
<g id="edge3" class="edge">
<title>3&#45;&gt;1</title>
<path fill="none" stroke="grey" stroke-width="2" d="M79.78,-143.88C99.84,-133.99 124.17,-121.99 144.58,-111.92"/>
<polygon fill="grey" stroke="grey" stroke-width="2" points="146.23,-115.01 153.65,-107.45 143.14,-108.73 146.23,-115.01"/>
</g>
<!-- 4 -->
<g id="node5" class="node">
<title>4</title>
<path fill="none" stroke="#d85656" stroke-width="2" stroke-dasharray="5,2" d="M166,-185C166,-185 110,-185 110,-185 104,-185 98,-179 98,-173 98,-173 98,-156 98,-156 98,-150 104,-144 110,-144 110,-144 166,-144 166,-144 172,-144 178,-150 178,-156 178,-156 178,-173 178,-173 178,-179 172,-185 166,-185"/>
<text text-anchor="middle" x="138" y="-173" font-family="sans" font-size="10.00">intermediate</text>
<text text-anchor="middle" x="138" y="-162" font-family="sans" font-size="10.00">i: 2</text>
<text text-anchor="middle" x="138" y="-151" font-family="sans" font-size="10.00">sample: a</text>
</g>
<!-- 4&#45;&gt;1 -->
<g id="edge4" class="edge">
<title>4&#45;&gt;1</title>
<path fill="none" stroke="grey" stroke-width="2" d="M151.39,-143.69C157,-135.39 163.6,-125.63 169.58,-116.78"/>
<polygon fill="grey" stroke="grey" stroke-width="2" points="172.59,-118.56 175.29,-108.32 166.79,-114.64 172.59,-118.56"/>
</g>
<!-- 5 -->
<g id="node6" class="node">
<title>5</title>
<path fill="none" stroke="#d85656" stroke-width="2" stroke-dasharray="5,2" d="M264,-185C264,-185 208,-185 208,-185 202,-185 196,-179 196,-173 196,-173 196,-156 196,-156 196,-150 202,-144 208,-144 208,-144 264,-144 264,-144 270,-144 276,-150 276,-156 276,-156 276,-173 276,-173 276,-179 270,-185 264,-185"/>
<text text-anchor="middle" x="236" y="-173" font-family="sans" font-size="10.00">intermediate</text>
<text text-anchor="middle" x="236" y="-162" font-family="sans" font-size="10.00">i: 3</text>
<text text-anchor="middle" x="236" y="-151" font-family="sans" font-size="10.00">sample: a</text>
</g>
<!-- 5&#45;&gt;1 -->
<g id="edge5" class="edge">
<title>5&#45;&gt;1</title>
<path fill="none" stroke="grey" stroke-width="2" d="M222.61,-143.69C217,-135.39 210.4,-125.63 204.42,-116.78"/>
<polygon fill="grey" stroke="grey" stroke-width="2" points="207.21,-114.64 198.71,-108.32 201.41,-118.56 207.21,-114.64"/>
</g>
<!-- 6 -->
<g id="node7" class="node">
<title>6</title>
<path fill="none" stroke="#d85656" stroke-width="2" stroke-dasharray="5,2" d="M362,-185C362,-185 306,-185 306,-185 300,-185 294,-179 294,-173 294,-173 294,-156 294,-156 294,-150 300,-144 306,-144 306,-144 362,-144 362,-144 368,-144 374,-150 374,-156 374,-156 374,-173 374,-173 374,-179 368,-185 362,-185"/>
<text text-anchor="middle" x="334" y="-173" font-family="sans" font-size="10.00">intermediate</text>
<text text-anchor="middle" x="334" y="-162" font-family="sans" font-size="10.00">i: 1</text>
<text text-anchor="middle" x="334" y="-151" font-family="sans" font-size="10.00">sample: b</text>
</g>
<!-- 6&#45;&gt;2 -->
<g id="edge6" class="edge">
<title>6&#45;&gt;2</title>
<path fill="none" stroke="grey" stroke-width="2" d="M334,-143.69C334,-135.91 334,-126.84 334,-118.45"/>
<polygon fill="grey" stroke="grey" stroke-width="2" points="337.5,-118.32 334,-108.32 330.5,-118.32 337.5,-118.32"/>
</g>
<!-- 7 -->
<g id="node8" class="node">
<title>7</title>
<path fill="none" stroke="#d85656" stroke-width="2" stroke-dasharray="5,2" d="M460,-185C460,-185 404,-185 404,-185 398,-185 392,-179 392,-173 392,-173 392,-156 392,-156 392,-150 398,-144 404,-144 404,-144 460,-144 460,-144 466,-144 472,-150 472,-156 472,-156 472,-173 472,-173 472,-179 466,-185 460,-185"/>
<text text-anchor="middle" x="432" y="-173" font-family="sans" font-size="10.00">intermediate</text>
<text text-anchor="middle" x="432" y="-162" font-family="sans" font-size="10.00">i: 2</text>
<text text-anchor="middle" x="432" y="-151" font-family="sans" font-size="10.00">sample: b</text>
</g>
<!-- 7&#45;&gt;2 -->
<g id="edge7" class="edge">
<title>7&#45;&gt;2</title>
<path fill="none" stroke="grey" stroke-width="2" d="M405.48,-143.88C393.11,-134.73 378.3,-123.77 365.38,-114.21"/>
<polygon fill="grey" stroke="grey" stroke-width="2" points="367.33,-111.3 357.2,-108.17 363.16,-116.93 367.33,-111.3"/>
</g>
</g>
</svg>
